# xmcd CD database file
#
# Track frame offsets:
#	150
#	18327
#	34678
#	52251
#	76877
#	120228
#	137014
#	179538
#	198175
#	215016
#	237227
#	255601
#	273813
#	292071
#	309671
#	332399
#
# Disc length: 4692 seconds
#
# Revision: 0
# Processed by: cddbd v1.5.2PL0 Copyright (c) Steve Scherf et al.
# Submitted via: CDex 1.70beta2
#
DISCID=e2125210
DTITLE=Stephan Mikes - The Best of Stephan Mikes
DYEAR=2003
DGENRE=Jazz
TTITLE0=New Morning
TTITLE1=Deja Vu
TTITLE2=Bhupali
TTITLE3=Dreaming of You
TTITLE4=Raga Blue
TTITLE5=Blue Largo
TTITLE6=Midnight
TTITLE7=House of Shiva
TTITLE8=Dakini Beach
TTITLE9=Shadows of Paradise
TTITLE10=Coconut Groove
TTITLE11=Moonlight Waves
TTITLE12=Zanzara
TTITLE13=Patagonia Sunrise
TTITLE14=The Good, The Bad and The Karmic
TTITLE15=Medium Rara
EXTD=YEAR: 2003
EXTT0=
EXTT1=
EXTT2=
EXTT3=
EXTT4=
EXTT5=
EXTT6=
EXTT7=
EXTT8=
EXTT9=
EXTT10=
EXTT11=
EXTT12=
EXTT13=
EXTT14=
EXTT15=
PLAYORDER=
